<?xml version="1.0" standalone="no"?>
<!DOCTYPE svg PUBLIC "-//W3C//DTD SVG 20010904//EN"
 "http://www.w3.org/TR/2001/REC-SVG-20010904/DTD/svg10.dtd">
<svg version="1.0" xmlns="http://www.w3.org/2000/svg"
 width="400.000000pt" height="400.000000pt" viewBox="0 0 400.000000 400.000000"
 preserveAspectRatio="xMidYMid meet">
<metadata>
Created by potrace 1.14, written by Peter Selinger 2001-2017
</metadata>
<g transform="translate(0.000000,400.000000) scale(0.100000,-0.100000)"
fill="#000000" stroke="none">
<path d="M0 2000 l0 -2000 2000 0 2000 0 0 2000 0 2000 -2000 0 -2000 0 0
-2000z m1344 1698 c3 -29 8 -79 11 -111 7 -67 32 -157 67 -243 30 -72 115
-208 155 -246 l28 -27 -3 228 c-3 196 -1 229 12 240 31 26 43 6 54 -91 31
-275 179 -491 419 -611 72 -37 198 -77 240 -77 l23 0 0 233 c0 127 -3 243 -7
255 -4 16 -21 30 -49 43 -46 19 -55 38 -29 59 21 18 281 7 350 -14 28 -9 77
-35 110 -60 33 -24 74 -48 90 -52 87 -21 144 -74 166 -155 20 -73 11 -83 -64
-73 -128 18 -194 3 -218 -49 -18 -39 4 -72 71 -108 116 -62 189 -145 231 -265
18 -53 20 -81 19 -279 0 -123 -5 -237 -11 -259 -15 -56 -53 -129 -89 -169
l-30 -35 0 -154 0 -154 35 -13 c41 -14 85 -73 88 -117 2 -25 -2 -29 -25 -32
-22 -3 -28 2 -38 33 -14 41 -60 75 -102 75 l-28 0 0 150 c0 83 -4 150 -8 150
-27 0 -32 -30 -32 -181 l0 -156 52 -5 c38 -4 57 -12 70 -28 10 -12 16 -26 13
-30 -3 -5 -47 -8 -97 -7 -89 2 -92 3 -98 27 l-6 24 -16 -23 c-11 -16 -28 -25
-52 -27 -20 -1 -36 1 -36 5 0 4 25 41 55 81 l55 74 0 99 0 99 -27 -6 c-52 -11
-173 -19 -173 -11 0 5 20 35 45 66 25 32 45 60 45 63 0 3 -20 6 -45 6 -25 0
-45 3 -45 6 0 3 20 32 45 64 25 32 45 61 45 64 0 11 -219 6 -245 -6 -27 -12
-32 -23 -14 -34 25 -15 51 -100 51 -164 1 -79 -25 -139 -82 -195 l-39 -38 23
-18 c31 -25 56 -79 56 -123 l0 -36 -252 0 c-154 0 -269 4 -293 11 -22 6 -56
28 -78 50 -22 21 -41 39 -43 39 -3 0 -21 -11 -42 -25 -173 -114 -413 -86 -565
66 -254 254 -119 691 235 763 49 10 63 17 74 39 8 15 28 34 44 42 39 20 119
20 126 0 10 -25 -16 -45 -57 -45 -30 0 -42 -5 -55 -26 -34 -50 18 -109 71 -80
18 9 17 11 -15 16 -29 4 -35 9 -35 30 0 24 3 25 67 28 60 3 67 1 73 -18 11
-33 -25 -92 -68 -114 -52 -25 -104 -10 -146 41 l-31 37 -47 -12 c-120 -32
-222 -115 -271 -219 -24 -52 -27 -70 -27 -163 0 -93 3 -112 27 -162 37 -80
107 -152 187 -191 61 -30 72 -32 171 -32 113 0 164 15 237 71 l33 25 0 197 c0
209 9 272 51 354 29 57 114 145 173 178 l49 28 -74 38 c-251 126 -433 329
-533 595 -50 133 -58 195 -63 506 -3 161 -3 299 1 308 3 8 16 15 30 15 22 0
25 -5 30 -52z m384 -2574 c25 -17 29 -34 7 -34 -8 0 -15 5 -15 10 0 13 -27 13
-35 0 -3 -5 10 -19 29 -31 28 -16 36 -27 36 -49 0 -29 -15 -40 -55 -40 -21 0
-45 24 -45 44 0 12 23 5 35 -11 7 -9 19 -14 29 -10 25 10 19 23 -19 46 -39 23
-48 63 -17 80 23 14 24 14 50 -5z m520 -20 c45 -51 11 -124 -57 -124 -62 0
-100 65 -67 116 33 49 83 52 124 8z m770 2 c4 -17 -13 -22 -23 -6 -9 15 -35
12 -35 -4 0 -8 16 -23 35 -35 37 -22 41 -31 25 -62 -15 -27 -64 -25 -85 3 -19
28 0 39 19 12 8 -10 20 -15 30 -11 26 10 19 32 -16 48 -40 17 -48 51 -17 72
25 18 62 9 67 -17z m-2038 -30 c0 -35 5 -58 15 -66 26 -22 45 5 45 66 0 30 5
54 10 54 16 0 12 -126 -4 -139 -24 -20 -69 -9 -83 19 -19 37 -17 120 2 120 11
0 15 -13 15 -54z m170 4 l25 -45 3 48 c5 76 22 54 22 -28 0 -90 -13 -97 -50
-28 l-25 48 -3 -48 c-2 -33 -7 -47 -18 -47 -11 0 -14 16 -14 76 0 66 2 75 17
72 10 -2 29 -23 43 -48z m110 -25 c0 -60 -3 -75 -15 -75 -12 0 -15 15 -15 75
0 60 3 75 15 75 12 0 15 -15 15 -75z m60 21 l16 -48 15 48 c8 28 22 50 30 52
13 2 12 -10 -10 -73 -14 -41 -31 -75 -37 -75 -5 0 -20 31 -32 68 -25 79 -26
85 -10 80 6 -2 19 -26 28 -52z m180 44 c0 -5 -13 -10 -30 -10 -23 0 -30 -4
-30 -20 0 -16 7 -20 30 -20 20 0 30 -5 30 -15 0 -10 -10 -15 -30 -15 -23 0
-30 -4 -30 -20 0 -11 3 -19 8 -19 23 4 52 -2 52 -11 0 -5 -20 -10 -45 -10
l-45 0 0 75 0 75 45 0 c25 0 45 -4 45 -10z m126 -15 c14 -22 14 -26 -2 -54
-14 -24 -16 -33 -6 -43 16 -16 15 -28 -3 -28 -8 0 -19 9 -25 20 -6 11 -17 20
-25 20 -8 0 -15 -9 -15 -20 0 -11 -4 -20 -10 -20 -6 0 -10 32 -10 75 l0 75 40
0 c31 0 43 -5 56 -25z m181 -31 c3 -59 -4 -94 -17 -94 -6 0 -10 33 -10 76 0
56 3 75 13 72 7 -3 13 -25 14 -54z m113 47 c0 -5 -9 -11 -21 -14 -11 -3 -19
-11 -18 -19 1 -7 1 -34 0 -60 -2 -73 -21 -57 -21 17 0 58 -2 65 -20 65 -11 0
-20 5 -20 10 0 6 23 10 50 10 28 0 50 -4 50 -9z m50 -16 c7 -14 17 -25 22 -25
5 0 14 11 20 25 9 21 38 36 38 20 0 -21 -73 -145 -85 -145 -14 0 -14 3 0 30
15 29 14 32 -10 67 -28 43 -31 53 -12 53 8 0 20 -11 27 -25z m410 15 c0 -5
-13 -10 -30 -10 -25 0 -30 -4 -30 -25 0 -21 5 -25 30 -25 17 0 30 -4 30 -10 0
-5 -13 -10 -30 -10 -27 0 -30 -3 -30 -30 0 -20 -5 -30 -15 -30 -12 0 -15 15
-15 75 l0 75 45 0 c25 0 45 -4 45 -10z m100 -42 c0 -50 9 -81 24 -79 18 3 26
0 26 -9 0 -5 -16 -10 -35 -10 l-35 0 0 75 c0 43 4 75 10 75 6 0 10 -24 10 -52z
m160 42 c0 -5 -13 -10 -30 -10 -23 0 -30 -4 -30 -20 0 -16 7 -20 31 -20 38 0
35 -24 -4 -28 -19 -2 -27 -9 -27 -23 0 -10 3 -18 8 -18 23 4 52 -2 52 -11 0
-5 -20 -10 -45 -10 l-45 0 0 75 0 75 45 0 c25 0 45 -4 45 -10z m110 0 c0 -5
-13 -10 -30 -10 -23 0 -30 -4 -30 -20 0 -16 7 -20 30 -20 20 0 30 -5 30 -15 0
-10 -10 -15 -31 -15 -24 0 -30 -4 -27 -17 2 -10 10 -19 18 -19 8 -1 21 -2 28
-3 6 0 12 -5 12 -11 0 -5 -18 -10 -40 -10 l-40 0 0 75 0 75 40 0 c22 0 40 -4
40 -10z m135 -15 c51 -51 13 -125 -65 -125 l-40 0 0 75 0 75 40 0 c30 0 47 -7
65 -25z m-1875 -350 l5 -80 74 0 73 0 2 80 c1 85 -2 81 51 76 13 -1 15 -29 15
-186 l0 -185 -35 0 -35 0 0 80 0 81 -72 -3 -73 -3 -3 -77 -3 -78 -29 0 -30 0
0 183 c0 101 3 187 7 191 4 4 16 6 28 4 18 -3 21 -12 25 -83z m553 71 c100
-41 140 -175 85 -281 -64 -123 -253 -127 -329 -7 -49 77 -35 198 27 253 55 48
150 64 217 35z m453 -12 c33 -24 60 -60 69 -91 6 -21 3 -23 -27 -23 -26 1 -37
7 -53 33 -13 20 -35 37 -61 46 -37 13 -44 12 -80 -5 -80 -39 -109 -135 -61
-205 29 -43 60 -59 116 -59 36 0 49 6 78 35 24 24 44 35 64 35 35 0 36 -7 6
-51 -66 -100 -237 -103 -310 -7 -75 98 -49 233 58 300 42 27 162 22 201 -8z
m186 17 c4 0 8 -36 10 -78 l3 -77 68 82 c63 76 71 82 103 79 19 -1 34 -4 34
-7 0 -3 -34 -45 -75 -94 -64 -77 -73 -92 -61 -105 7 -9 41 -50 76 -91 l64 -75
-38 -3 c-34 -3 -42 1 -74 40 -21 24 -52 59 -69 78 l-32 35 -1 -77 0 -78 -30 0
-30 0 0 189 0 188 23 -2 c12 -1 25 -3 29 -4z m466 3 c15 -4 22 -14 22 -30 0
-23 -3 -24 -75 -24 l-75 0 0 -55 0 -55 75 0 c73 0 75 -1 75 -25 0 -24 -2 -25
-74 -25 l-74 0 -4 -46 c-2 -25 -1 -47 1 -50 2 -2 37 -4 78 -4 l73 0 0 -30 0
-30 -110 0 -110 0 0 183 c0 101 3 187 7 190 8 9 160 9 191 1z m184 -79 l50
-79 42 79 c40 76 57 91 92 78 9 -3 -12 -55 -79 -189 -91 -182 -92 -184 -124
-184 -18 0 -33 2 -33 5 0 3 16 37 35 75 l35 69 -70 111 c-39 61 -70 112 -70
114 0 2 16 2 36 1 33 -1 39 -7 86 -80z"/>
<path d="M1340 3325 c0 -70 19 -223 37 -293 90 -366 394 -655 778 -739 41 -9
153 -18 270 -21 197 -7 200 -7 203 -29 3 -17 -3 -24 -23 -29 -49 -12 -385 3
-472 21 -76 16 -85 16 -131 1 -106 -35 -178 -103 -230 -213 -27 -58 -27 -58
-27 -291 l0 -233 37 -35 38 -34 212 0 c117 0 223 -3 236 -6 31 -9 29 16 -4 47
-25 23 -31 24 -200 27 l-175 3 3 27 3 27 150 5 c83 3 162 11 176 17 36 16 89
71 105 110 52 123 -32 276 -160 290 -50 6 -72 23 -62 49 8 21 94 15 147 -10
34 -16 37 -16 80 3 34 16 66 21 139 21 246 1 377 67 454 230 28 59 31 74 31
165 0 93 -2 105 -32 166 -39 79 -107 145 -192 188 -73 37 -96 69 -96 132 0 95
70 144 203 143 47 0 82 4 82 9 0 23 -80 85 -118 92 -24 4 -66 26 -107 55 -80
59 -114 70 -222 70 l-83 0 10 -26 c6 -14 10 -135 10 -269 l0 -243 123 -4 c108
-3 128 -7 172 -30 55 -28 123 -96 150 -148 33 -65 37 -170 5 -170 -19 0 -40
33 -40 64 0 47 -46 131 -92 167 -65 52 -95 58 -288 59 -266 0 -415 31 -595
122 -197 100 -343 245 -451 452 -52 99 -54 100 -54 61z"/>
<path d="M1664 3123 c14 -133 12 -130 90 -184 39 -28 104 -66 144 -86 75 -36
105 -40 55 -8 -95 62 -204 186 -257 293 -15 28 -29 52 -32 52 -4 0 -3 -30 0
-67z"/>
<path d="M2891 2117 c-26 -28 -72 -61 -113 -82 -50 -25 -80 -48 -106 -81 l-35
-47 29 7 c52 13 128 53 169 89 40 35 110 139 103 154 -1 4 -23 -13 -47 -40z"/>
<path d="M2885 1969 c-28 -27 -78 -64 -113 -81 -57 -28 -133 -100 -120 -114
11 -10 117 38 161 72 26 20 62 59 80 88 30 46 51 86 44 86 -2 0 -25 -23 -52
-51z"/>
<path d="M2157 1092 c-22 -24 -21 -55 1 -75 24 -22 45 -21 65 1 21 23 22 56 1
76 -21 21 -47 20 -67 -2z"/>
<path d="M1557 1103 c-4 -3 -7 -17 -7 -30 0 -18 6 -23 24 -23 13 0 27 7 30 16
11 28 -27 57 -47 37z"/>
<path d="M2810 1055 c0 -60 9 -67 48 -39 39 27 19 94 -29 94 -16 0 -19 -7 -19
-55z"/>
<path d="M1434 776 c-71 -31 -99 -113 -66 -190 34 -77 123 -101 188 -51 82 63
63 201 -32 241 -41 17 -50 17 -90 0z"/>
</g>
</svg>
